<mxfile host="app.diagrams.net" agent="Mozilla/5.0 (Windows NT 10.0; Win64; x64) AppleWebKit/537.36 (KHTML, like Gecko) Chrome/127.0.0.0 Safari/537.36" version="24.7.6">
  <diagram name="Page-1" id="dD29cySdZP62OlTQgOJT">
    <mxGraphModel dx="1900" dy="1630" grid="1" gridSize="10" guides="1" tooltips="1" connect="1" arrows="1" fold="1" page="1" pageScale="1" pageWidth="850" pageHeight="1100" background="none" math="0" shadow="0">
      <root>
        <mxCell id="0" />
        <mxCell id="1" parent="0" />
        <mxCell id="BDY_F9Gg0oUb3C9UldvQ-10" style="edgeStyle=orthogonalEdgeStyle;rounded=0;orthogonalLoop=1;jettySize=auto;html=1;exitX=1;exitY=0.5;exitDx=0;exitDy=0;entryX=0;entryY=0.25;entryDx=0;entryDy=0;" parent="1" source="F8RsnSarVV1AUwlZgipK-1" target="F8RsnSarVV1AUwlZgipK-21" edge="1">
          <mxGeometry relative="1" as="geometry" />
        </mxCell>
        <mxCell id="BDY_F9Gg0oUb3C9UldvQ-11" style="edgeStyle=orthogonalEdgeStyle;rounded=0;orthogonalLoop=1;jettySize=auto;html=1;exitX=0.5;exitY=1;exitDx=0;exitDy=0;" parent="1" source="F8RsnSarVV1AUwlZgipK-1" target="F8RsnSarVV1AUwlZgipK-23" edge="1">
          <mxGeometry relative="1" as="geometry" />
        </mxCell>
        <mxCell id="F8RsnSarVV1AUwlZgipK-1" value="enigma-jhud" style="swimlane;whiteSpace=wrap;html=1;" parent="1" vertex="1">
          <mxGeometry x="-20" y="150" width="220" height="240" as="geometry" />
        </mxCell>
        <mxCell id="F8RsnSarVV1AUwlZgipK-2" value="`fips` bigint,  &#xa;  `admin2` string,  &#xa;  `province_state` string,  &#xa;  `country_region` string,  &#xa;  `last_update` string,  &#xa;  `latitude` double,  &#xa;  `longitude` double,  &#xa;  `confirmed` bigint,  &#xa;  `deaths` bigint,  &#xa;  `recovered` bigint,  &#xa;  `active` string,  &#xa;  `combined_key` string)" style="text;whiteSpace=wrap;html=1;" parent="F8RsnSarVV1AUwlZgipK-1" vertex="1">
          <mxGeometry x="20" y="30" width="160" height="200" as="geometry" />
        </mxCell>
        <mxCell id="F8RsnSarVV1AUwlZgipK-5" value="&lt;pre style=&quot;font-family: var(--font-family-monospace-yt4nwf, Monaco, Menlo, Consolas, &amp;quot;Courier Prime&amp;quot;, Courier, &amp;quot;Courier New&amp;quot;, monospace); font-size: var(--font-size-body-s-533prh, 12px); padding: 0.4rem; margin-top: 0px; margin-bottom: 0px; overflow: auto; background-image: initial; background-position: initial; background-size: initial; background-repeat: initial; background-attachment: initial; background-origin: initial; background-clip: initial; text-wrap: wrap; line-height: var(--line-height-body-s-n0pazd, 16px); -webkit-font-smoothing: auto; font-weight: 400; padding-block: var(--space-scaled-xl-rljqft, 24px); padding-inline: var(--space-xl-5fdwzu, 24px); text-align: start;&quot; class=&quot;awsui_root_18wu0_1ra3n_851 awsui_box_18wu0_1ra3n_108 awsui_pre-variant_18wu0_1ra3n_108 awsui_p-xl_18wu0_1ra3n_501 awsui_color-default_18wu0_1ra3n_108 awsui_font-size-body-s_18wu0_1ra3n_259 awsui_font-weight-default_18wu0_1ra3n_164&quot; data-testid=&quot;query-results-text&quot;&gt;&lt;span style=&quot;background-color: rgb(255, 255, 255);&quot;&gt;&lt;font color=&quot;#0a0a0a&quot;&gt;nytimes_data_in_usa_us_states&lt;/font&gt;&lt;/span&gt;&lt;/pre&gt;" style="swimlane;whiteSpace=wrap;html=1;" parent="1" vertex="1">
          <mxGeometry x="500" y="-10" width="240" height="170" as="geometry" />
        </mxCell>
        <mxCell id="F8RsnSarVV1AUwlZgipK-6" value="&lt;pre data-testid=&quot;query-results-text&quot; class=&quot;awsui_root_18wu0_1ra3n_851 awsui_box_18wu0_1ra3n_108 awsui_pre-variant_18wu0_1ra3n_108 awsui_p-xl_18wu0_1ra3n_501 awsui_color-default_18wu0_1ra3n_108 awsui_font-size-body-s_18wu0_1ra3n_259 awsui_font-weight-default_18wu0_1ra3n_164&quot; style=&quot;font-family: var(--font-family-monospace-yt4nwf, Monaco, Menlo, Consolas, &amp;quot;Courier Prime&amp;quot;, Courier, &amp;quot;Courier New&amp;quot;, monospace); font-size: var(--font-size-body-s-533prh, 12px); padding: 0.4rem; margin-top: 0px; margin-bottom: 0px; overflow: auto; background-image: initial; background-position: initial; background-size: initial; background-repeat: initial; background-attachment: initial; background-origin: initial; background-clip: initial; text-wrap: wrap; line-height: var(--line-height-body-s-n0pazd, 16px); -webkit-font-smoothing: auto; padding-block: var(--space-scaled-xl-rljqft, 24px); padding-inline: var(--space-xl-5fdwzu, 24px);&quot;&gt;  `date` string, &lt;br&gt;  `state` string, &lt;br&gt;  `fips` bigint, &lt;br&gt;  `cases` bigint, &lt;br&gt;  `deaths` bigint&lt;/pre&gt;" style="text;whiteSpace=wrap;html=1;fontColor=default;labelBackgroundColor=none;" parent="F8RsnSarVV1AUwlZgipK-5" vertex="1">
          <mxGeometry x="10" y="20" width="190" height="200" as="geometry" />
        </mxCell>
        <mxCell id="F8RsnSarVV1AUwlZgipK-7" value="&lt;pre style=&quot;font-family: var(--font-family-monospace-yt4nwf, Monaco, Menlo, Consolas, &amp;quot;Courier Prime&amp;quot;, Courier, &amp;quot;Courier New&amp;quot;, monospace); font-size: var(--font-size-body-s-533prh, 12px); padding: 0.4rem; margin-top: 0px; margin-bottom: 0px; overflow: auto; background-image: initial; background-position: initial; background-size: initial; background-repeat: initial; background-attachment: initial; background-origin: initial; background-clip: initial; text-wrap: wrap; line-height: var(--line-height-body-s-n0pazd, 16px); -webkit-font-smoothing: auto; font-weight: 400; padding-block: var(--space-scaled-xl-rljqft, 24px); padding-inline: var(--space-xl-5fdwzu, 24px); text-align: start;&quot; class=&quot;awsui_root_18wu0_1ra3n_851 awsui_box_18wu0_1ra3n_108 awsui_pre-variant_18wu0_1ra3n_108 awsui_p-xl_18wu0_1ra3n_501 awsui_color-default_18wu0_1ra3n_108 awsui_font-size-body-s_18wu0_1ra3n_259 awsui_font-weight-default_18wu0_1ra3n_164&quot; data-testid=&quot;query-results-text&quot;&gt;&lt;span style=&quot;&quot;&gt;&lt;font color=&quot;#0a0a0a&quot;&gt;nytimes_data_in_usa_us_country&lt;/font&gt;&lt;/span&gt;&lt;/pre&gt;" style="swimlane;whiteSpace=wrap;html=1;labelBackgroundColor=none;shadow=0;" parent="1" vertex="1">
          <mxGeometry x="80" y="-260" width="240" height="190" as="geometry" />
        </mxCell>
        <mxCell id="F8RsnSarVV1AUwlZgipK-8" value="&lt;pre data-testid=&quot;query-results-text&quot; class=&quot;awsui_root_18wu0_1ra3n_851 awsui_box_18wu0_1ra3n_108 awsui_pre-variant_18wu0_1ra3n_108 awsui_p-xl_18wu0_1ra3n_501 awsui_color-default_18wu0_1ra3n_108 awsui_font-size-body-s_18wu0_1ra3n_259 awsui_font-weight-default_18wu0_1ra3n_164&quot; style=&quot;font-family: var(--font-family-monospace-yt4nwf, Monaco, Menlo, Consolas, &amp;quot;Courier Prime&amp;quot;, Courier, &amp;quot;Courier New&amp;quot;, monospace); font-size: var(--font-size-body-s-533prh, 12px); padding: 0.4rem; margin-top: 0px; margin-bottom: 0px; overflow: auto; background-image: initial; background-position: initial; background-size: initial; background-repeat: initial; background-attachment: initial; background-origin: initial; background-clip: initial; text-wrap: wrap; line-height: var(--line-height-body-s-n0pazd, 16px); -webkit-font-smoothing: auto; padding-block: var(--space-scaled-xl-rljqft, 24px); padding-inline: var(--space-xl-5fdwzu, 24px);&quot;&gt;&lt;pre data-testid=&quot;query-results-text&quot; class=&quot;awsui_root_18wu0_1ra3n_851 awsui_box_18wu0_1ra3n_108 awsui_pre-variant_18wu0_1ra3n_108 awsui_p-xl_18wu0_1ra3n_501 awsui_color-default_18wu0_1ra3n_108 awsui_font-size-body-s_18wu0_1ra3n_259 awsui_font-weight-default_18wu0_1ra3n_164&quot; style=&quot;font-family: var(--font-family-monospace-yt4nwf, Monaco, Menlo, Consolas, &amp;quot;Courier Prime&amp;quot;, Courier, &amp;quot;Courier New&amp;quot;, monospace); font-size: var(--font-size-body-s-533prh, 12px); padding: 0.4rem; margin-top: 0px; margin-bottom: 0px; overflow: auto; background-image: initial; background-position: initial; background-size: initial; background-repeat: initial; background-attachment: initial; background-origin: initial; background-clip: initial; text-wrap: wrap; line-height: var(--line-height-body-s-n0pazd, 16px); -webkit-font-smoothing: auto; padding-block: var(--space-scaled-xl-rljqft, 24px); padding-inline: var(--space-xl-5fdwzu, 24px);&quot;&gt; `date` string, &lt;br&gt;  `county` string, &lt;br&gt;  `state` string, &lt;br&gt;  `fips` bigint, &lt;br&gt;  `cases` bigint, &lt;br&gt;  `deaths` bigint&lt;/pre&gt;&lt;/pre&gt;" style="text;whiteSpace=wrap;html=1;fontColor=default;labelBackgroundColor=none;" parent="F8RsnSarVV1AUwlZgipK-7" vertex="1">
          <mxGeometry x="10" y="10" width="230" height="200" as="geometry" />
        </mxCell>
        <mxCell id="F8RsnSarVV1AUwlZgipK-17" value="&lt;pre style=&quot;font-family: var(--font-family-monospace-yt4nwf, Monaco, Menlo, Consolas, &amp;quot;Courier Prime&amp;quot;, Courier, &amp;quot;Courier New&amp;quot;, monospace); font-size: var(--font-size-body-s-533prh, 12px); padding: 0.4rem; margin-top: 0px; margin-bottom: 0px; overflow: auto; background-image: initial; background-position: initial; background-size: initial; background-repeat: initial; background-attachment: initial; background-origin: initial; background-clip: initial; text-wrap: wrap; line-height: var(--line-height-body-s-n0pazd, 16px); -webkit-font-smoothing: auto; font-weight: 400; padding-block: var(--space-scaled-xl-rljqft, 24px); padding-inline: var(--space-xl-5fdwzu, 24px); text-align: start;&quot; class=&quot;awsui_root_18wu0_1ra3n_851 awsui_box_18wu0_1ra3n_108 awsui_pre-variant_18wu0_1ra3n_108 awsui_p-xl_18wu0_1ra3n_501 awsui_color-default_18wu0_1ra3n_108 awsui_font-size-body-s_18wu0_1ra3n_259 awsui_font-weight-default_18wu0_1ra3n_164&quot; data-testid=&quot;query-results-text&quot;&gt;rearc-covid-19-testing-data-us-total-latestus_total_latest&lt;/pre&gt;" style="swimlane;whiteSpace=wrap;html=1;labelBackgroundColor=none;fontColor=default;" parent="1" vertex="1">
          <mxGeometry x="-60" y="1570" width="440" height="370" as="geometry" />
        </mxCell>
        <mxCell id="F8RsnSarVV1AUwlZgipK-18" value="&lt;pre style=&quot;font-family: var(--font-family-monospace-yt4nwf, Monaco, Menlo, Consolas, &amp;quot;Courier Prime&amp;quot;, Courier, &amp;quot;Courier New&amp;quot;, monospace); font-size: var(--font-size-body-s-533prh, 12px); padding: 0.4rem; margin-top: 0px; margin-bottom: 0px; overflow: auto; background-image: initial; background-position: initial; background-size: initial; background-repeat: initial; background-attachment: initial; background-origin: initial; background-clip: initial; text-wrap: wrap; line-height: var(--line-height-body-s-n0pazd, 16px); -webkit-font-smoothing: auto; padding-block: var(--space-scaled-xl-rljqft, 24px); padding-inline: var(--space-xl-5fdwzu, 24px);&quot; class=&quot;awsui_root_18wu0_1ra3n_851 awsui_box_18wu0_1ra3n_108 awsui_pre-variant_18wu0_1ra3n_108 awsui_p-xl_18wu0_1ra3n_501 awsui_color-default_18wu0_1ra3n_108 awsui_font-size-body-s_18wu0_1ra3n_259 awsui_font-weight-default_18wu0_1ra3n_164&quot; data-testid=&quot;query-results-text&quot;&gt;`positive` bigint, &lt;br&gt;  `negative` bigint, &lt;br&gt;  `pending` bigint, &lt;br&gt;  `hospitalizedcurrently` bigint, &lt;br&gt;  `hospitalizedcumulative` bigint, &lt;br&gt;  `inicucurrently` bigint, &lt;br&gt;  `inicucumulative` bigint, &lt;br&gt;  `onventilatorcurrently` bigint, &lt;br&gt;  `onventilatorcumulative` bigint, &lt;br&gt;  `recovered` bigint, &lt;br&gt;  `hash` string, &lt;br&gt;  `lastmodified` string, &lt;br&gt;  `death` bigint, &lt;br&gt;  `hospitalized` bigint, &lt;br&gt;  `total` bigint, &lt;br&gt;  `totaltestresults` bigint, &lt;br&gt;  `posneg` bigint, &lt;br&gt;  `notes` string&lt;/pre&gt;" style="text;whiteSpace=wrap;html=1;labelBackgroundColor=none;fontColor=default;" parent="F8RsnSarVV1AUwlZgipK-17" vertex="1">
          <mxGeometry x="50" y="20" width="310" height="200" as="geometry" />
        </mxCell>
        <mxCell id="BDY_F9Gg0oUb3C9UldvQ-19" style="edgeStyle=orthogonalEdgeStyle;rounded=0;orthogonalLoop=1;jettySize=auto;html=1;exitX=1;exitY=0.75;exitDx=0;exitDy=0;" parent="1" source="F8RsnSarVV1AUwlZgipK-21" edge="1">
          <mxGeometry relative="1" as="geometry">
            <mxPoint x="1020" y="730" as="targetPoint" />
          </mxGeometry>
        </mxCell>
        <mxCell id="F8RsnSarVV1AUwlZgipK-21" value="&lt;pre style=&quot;font-family: var(--font-family-monospace-yt4nwf, Monaco, Menlo, Consolas, &amp;quot;Courier Prime&amp;quot;, Courier, &amp;quot;Courier New&amp;quot;, monospace); font-size: var(--font-size-body-s-533prh, 12px); padding: 0.4rem; margin-top: 0px; margin-bottom: 0px; overflow: auto; background-image: initial; background-position: initial; background-size: initial; background-repeat: initial; background-attachment: initial; background-origin: initial; background-clip: initial; text-wrap: wrap; line-height: var(--line-height-body-s-n0pazd, 16px); -webkit-font-smoothing: auto; font-weight: 400; padding-block: var(--space-scaled-xl-rljqft, 24px); padding-inline: var(--space-xl-5fdwzu, 24px); text-align: start;&quot; class=&quot;awsui_root_18wu0_1ra3n_851 awsui_box_18wu0_1ra3n_108 awsui_pre-variant_18wu0_1ra3n_108 awsui_p-xl_18wu0_1ra3n_501 awsui_color-default_18wu0_1ra3n_108 awsui_font-size-body-s_18wu0_1ra3n_259 awsui_font-weight-default_18wu0_1ra3n_164&quot; data-testid=&quot;query-results-text&quot;&gt;&lt;pre style=&quot;font-family: var(--font-family-monospace-yt4nwf, Monaco, Menlo, Consolas, &amp;quot;Courier Prime&amp;quot;, Courier, &amp;quot;Courier New&amp;quot;, monospace); font-size: var(--font-size-body-s-533prh, 12px); padding: 0.4rem; margin-top: 0px; margin-bottom: 0px; overflow: auto; background-image: initial; background-position: initial; background-size: initial; background-repeat: initial; background-attachment: initial; background-origin: initial; background-clip: initial; text-wrap: wrap; line-height: var(--line-height-body-s-n0pazd, 16px); -webkit-font-smoothing: auto; padding-block: var(--space-scaled-xl-rljqft, 24px); padding-inline: var(--space-xl-5fdwzu, 24px);&quot; class=&quot;awsui_root_18wu0_1ra3n_851 awsui_box_18wu0_1ra3n_108 awsui_pre-variant_18wu0_1ra3n_108 awsui_p-xl_18wu0_1ra3n_501 awsui_color-default_18wu0_1ra3n_108 awsui_font-size-body-s_18wu0_1ra3n_259 awsui_font-weight-default_18wu0_1ra3n_164&quot; data-testid=&quot;query-results-text&quot;&gt;rearc-covid-19-testing-dataus_daily&lt;/pre&gt;&lt;/pre&gt;" style="swimlane;whiteSpace=wrap;html=1;labelBackgroundColor=none;fontColor=default;" parent="1" vertex="1">
          <mxGeometry x="425" y="270" width="440" height="460" as="geometry" />
        </mxCell>
        <mxCell id="F8RsnSarVV1AUwlZgipK-22" value="&lt;pre style=&quot;font-family: var(--font-family-monospace-yt4nwf, Monaco, Menlo, Consolas, &amp;quot;Courier Prime&amp;quot;, Courier, &amp;quot;Courier New&amp;quot;, monospace); font-size: var(--font-size-body-s-533prh, 12px); padding: 0.4rem; margin-top: 0px; margin-bottom: 0px; overflow: auto; background-image: initial; background-position: initial; background-size: initial; background-repeat: initial; background-attachment: initial; background-origin: initial; background-clip: initial; text-wrap: wrap; line-height: var(--line-height-body-s-n0pazd, 16px); -webkit-font-smoothing: auto; padding-block: var(--space-scaled-xl-rljqft, 24px); padding-inline: var(--space-xl-5fdwzu, 24px);&quot; class=&quot;awsui_root_18wu0_1ra3n_851 awsui_box_18wu0_1ra3n_108 awsui_pre-variant_18wu0_1ra3n_108 awsui_p-xl_18wu0_1ra3n_501 awsui_color-default_18wu0_1ra3n_108 awsui_font-size-body-s_18wu0_1ra3n_259 awsui_font-weight-default_18wu0_1ra3n_164&quot; data-testid=&quot;query-results-text&quot;&gt;&lt;pre style=&quot;font-family: var(--font-family-monospace-yt4nwf, Monaco, Menlo, Consolas, &amp;quot;Courier Prime&amp;quot;, Courier, &amp;quot;Courier New&amp;quot;, monospace); font-size: var(--font-size-body-s-533prh, 12px); padding: 0.4rem; margin-top: 0px; margin-bottom: 0px; overflow: auto; background-image: initial; background-position: initial; background-size: initial; background-repeat: initial; background-attachment: initial; background-origin: initial; background-clip: initial; text-wrap: wrap; line-height: var(--line-height-body-s-n0pazd, 16px); -webkit-font-smoothing: auto; padding-block: var(--space-scaled-xl-rljqft, 24px); padding-inline: var(--space-xl-5fdwzu, 24px);&quot; class=&quot;awsui_root_18wu0_1ra3n_851 awsui_box_18wu0_1ra3n_108 awsui_pre-variant_18wu0_1ra3n_108 awsui_p-xl_18wu0_1ra3n_501 awsui_color-default_18wu0_1ra3n_108 awsui_font-size-body-s_18wu0_1ra3n_259 awsui_font-weight-default_18wu0_1ra3n_164&quot; data-testid=&quot;query-results-text&quot;&gt; `date` bigint, &lt;br&gt;  `states` bigint, &lt;br&gt;  `positive` bigint, &lt;br&gt;  `negative` bigint, &lt;br&gt;  `pending` bigint, &lt;br&gt;  `hospitalizedcurrently` bigint, &lt;br&gt;  `hospitalizedcumulative` bigint, &lt;br&gt;  `inicucurrently` bigint, &lt;br&gt;  `inicucumulative` bigint, &lt;br&gt;  `onventilatorcurrently` bigint, &lt;br&gt;  `onventilatorcumulative` bigint, &lt;br&gt;  `datechecked` string, &lt;br&gt;  `death` bigint, &lt;br&gt;  `hospitalized` bigint, &lt;br&gt;  `totaltestresults` bigint, &lt;br&gt;  `lastmodified` string, &lt;br&gt;  `recovered` string, &lt;br&gt;  `total` bigint, &lt;br&gt;  `posneg` bigint, &lt;br&gt;  `deathincrease` bigint, &lt;br&gt;  `hospitalizedincrease` bigint, &lt;br&gt;  `negativeincrease` bigint, &lt;br&gt;  `positiveincrease` bigint, &lt;br&gt;  `totaltestresultsincrease` bigint, &lt;br&gt;  `hash` string)&lt;/pre&gt;&lt;/pre&gt;" style="text;whiteSpace=wrap;html=1;labelBackgroundColor=none;fontColor=default;" parent="F8RsnSarVV1AUwlZgipK-21" vertex="1">
          <mxGeometry x="10" y="-10" width="340" height="200" as="geometry" />
        </mxCell>
        <mxCell id="BDY_F9Gg0oUb3C9UldvQ-12" style="edgeStyle=orthogonalEdgeStyle;rounded=0;orthogonalLoop=1;jettySize=auto;html=1;exitX=1;exitY=0.25;exitDx=0;exitDy=0;" parent="1" source="F8RsnSarVV1AUwlZgipK-23" edge="1">
          <mxGeometry relative="1" as="geometry">
            <mxPoint x="430" y="690" as="targetPoint" />
          </mxGeometry>
        </mxCell>
        <mxCell id="F8RsnSarVV1AUwlZgipK-23" value="&lt;pre style=&quot;font-family: var(--font-family-monospace-yt4nwf, Monaco, Menlo, Consolas, &amp;quot;Courier Prime&amp;quot;, Courier, &amp;quot;Courier New&amp;quot;, monospace); font-size: var(--font-size-body-s-533prh, 12px); padding: 0.4rem; margin-top: 0px; margin-bottom: 0px; overflow: auto; background-image: initial; background-position: initial; background-size: initial; background-repeat: initial; background-attachment: initial; background-origin: initial; background-clip: initial; text-wrap: wrap; line-height: var(--line-height-body-s-n0pazd, 16px); -webkit-font-smoothing: auto; font-weight: 400; padding-block: var(--space-scaled-xl-rljqft, 24px); padding-inline: var(--space-xl-5fdwzu, 24px); text-align: start;&quot; class=&quot;awsui_root_18wu0_1ra3n_851 awsui_box_18wu0_1ra3n_108 awsui_pre-variant_18wu0_1ra3n_108 awsui_p-xl_18wu0_1ra3n_501 awsui_color-default_18wu0_1ra3n_108 awsui_font-size-body-s_18wu0_1ra3n_259 awsui_font-weight-default_18wu0_1ra3n_164&quot; data-testid=&quot;query-results-text&quot;&gt;&lt;pre style=&quot;font-family: var(--font-family-monospace-yt4nwf, Monaco, Menlo, Consolas, &amp;quot;Courier Prime&amp;quot;, Courier, &amp;quot;Courier New&amp;quot;, monospace); font-size: var(--font-size-body-s-533prh, 12px); padding: 0.4rem; margin-top: 0px; margin-bottom: 0px; overflow: auto; background-image: initial; background-position: initial; background-size: initial; background-repeat: initial; background-attachment: initial; background-origin: initial; background-clip: initial; text-wrap: wrap; line-height: var(--line-height-body-s-n0pazd, 16px); -webkit-font-smoothing: auto; padding-block: var(--space-scaled-xl-rljqft, 24px); padding-inline: var(--space-xl-5fdwzu, 24px);&quot; class=&quot;awsui_root_18wu0_1ra3n_851 awsui_box_18wu0_1ra3n_108 awsui_pre-variant_18wu0_1ra3n_108 awsui_p-xl_18wu0_1ra3n_501 awsui_color-default_18wu0_1ra3n_108 awsui_font-size-body-s_18wu0_1ra3n_259 awsui_font-weight-default_18wu0_1ra3n_164&quot; data-testid=&quot;query-results-text&quot;&gt;rearc-covid-19-testing-datastates_daily&lt;/pre&gt;&lt;/pre&gt;" style="swimlane;whiteSpace=wrap;html=1;labelBackgroundColor=none;fontColor=default;" parent="1" vertex="1">
          <mxGeometry x="-100" y="480" width="440" height="1020" as="geometry" />
        </mxCell>
        <mxCell id="F8RsnSarVV1AUwlZgipK-24" value="&lt;pre style=&quot;font-family: var(--font-family-monospace-yt4nwf, Monaco, Menlo, Consolas, &amp;quot;Courier Prime&amp;quot;, Courier, &amp;quot;Courier New&amp;quot;, monospace); font-size: var(--font-size-body-s-533prh, 12px); padding: 0.4rem; margin-top: 0px; margin-bottom: 0px; overflow: auto; background-image: initial; background-position: initial; background-size: initial; background-repeat: initial; background-attachment: initial; background-origin: initial; background-clip: initial; text-wrap: wrap; line-height: var(--line-height-body-s-n0pazd, 16px); -webkit-font-smoothing: auto; padding-block: var(--space-scaled-xl-rljqft, 24px); padding-inline: var(--space-xl-5fdwzu, 24px);&quot; class=&quot;awsui_root_18wu0_1ra3n_851 awsui_box_18wu0_1ra3n_108 awsui_pre-variant_18wu0_1ra3n_108 awsui_p-xl_18wu0_1ra3n_501 awsui_color-default_18wu0_1ra3n_108 awsui_font-size-body-s_18wu0_1ra3n_259 awsui_font-weight-default_18wu0_1ra3n_164&quot; data-testid=&quot;query-results-text&quot;&gt;&lt;pre style=&quot;font-family: var(--font-family-monospace-yt4nwf, Monaco, Menlo, Consolas, &amp;quot;Courier Prime&amp;quot;, Courier, &amp;quot;Courier New&amp;quot;, monospace); font-size: var(--font-size-body-s-533prh, 12px); padding: 0.4rem; margin-top: 0px; margin-bottom: 0px; overflow: auto; background-image: initial; background-position: initial; background-size: initial; background-repeat: initial; background-attachment: initial; background-origin: initial; background-clip: initial; text-wrap: wrap; line-height: var(--line-height-body-s-n0pazd, 16px); -webkit-font-smoothing: auto; padding-block: var(--space-scaled-xl-rljqft, 24px); padding-inline: var(--space-xl-5fdwzu, 24px);&quot; class=&quot;awsui_root_18wu0_1ra3n_851 awsui_box_18wu0_1ra3n_108 awsui_pre-variant_18wu0_1ra3n_108 awsui_p-xl_18wu0_1ra3n_501 awsui_color-default_18wu0_1ra3n_108 awsui_font-size-body-s_18wu0_1ra3n_259 awsui_font-weight-default_18wu0_1ra3n_164&quot; data-testid=&quot;query-results-text&quot;&gt;`date` bigint, &lt;br&gt;  `state` string, &lt;br&gt;  `positive` bigint, &lt;br&gt;  `probablecases` bigint, &lt;br&gt;  `negative` bigint, &lt;br&gt;  `pending` bigint, &lt;br&gt;  `totaltestresultssource` string, &lt;br&gt;  `totaltestresults` bigint, &lt;br&gt;  `hospitalizedcurrently` bigint, &lt;br&gt;  `hospitalizedcumulative` bigint, &lt;br&gt;  `inicucurrently` bigint, &lt;br&gt;  `inicucumulative` bigint, &lt;br&gt;  `onventilatorcurrently` bigint, &lt;br&gt;  `onventilatorcumulative` bigint, &lt;br&gt;  `recovered` bigint, &lt;br&gt;  `lastupdateet` string, &lt;br&gt;  `datemodified` string, &lt;br&gt;  `checktimeet` string, &lt;br&gt;  `death` bigint, &lt;br&gt;  `hospitalized` bigint, &lt;br&gt;  `hospitalizeddischarged` bigint, &lt;br&gt;  `datechecked` string, &lt;br&gt;  `totaltestsviral` bigint, &lt;br&gt;  `positivetestsviral` bigint, &lt;br&gt;  `negativetestsviral` bigint, &lt;br&gt;  `positivecasesviral` bigint, &lt;br&gt;  `deathconfirmed` bigint, &lt;br&gt;  `deathprobable` bigint, &lt;br&gt;  `totaltestencountersviral` bigint, &lt;br&gt;  `totaltestspeopleviral` bigint, &lt;br&gt;  `totaltestsantibody` bigint, &lt;br&gt;  `positivetestsantibody` bigint, &lt;br&gt;  `negativetestsantibody` bigint, &lt;br&gt;  `totaltestspeopleantibody` bigint, &lt;br&gt;  `positivetestspeopleantibody` bigint, &lt;br&gt;  `negativetestspeopleantibody` bigint, &lt;br&gt;  `totaltestspeopleantigen` bigint, &lt;br&gt;  `positivetestspeopleantigen` bigint, &lt;br&gt;  `totaltestsantigen` bigint, &lt;br&gt;  `positivetestsantigen` bigint, &lt;br&gt;  `fips` bigint, &lt;br&gt;  `positiveincrease` bigint, &lt;br&gt;  `negativeincrease` bigint, &lt;br&gt;  `total` bigint, &lt;br&gt;  `totaltestresultsincrease` bigint, &lt;br&gt;  `posneg` bigint, &lt;br&gt;  `dataqualitygrade` string, &lt;br&gt;  `deathincrease` bigint, &lt;br&gt;  `hospitalizedincrease` bigint, &lt;br&gt;  `hash` string, &lt;br&gt;  `commercialscore` bigint, &lt;br&gt;  `negativeregularscore` bigint, &lt;br&gt;  `negativescore` bigint, &lt;br&gt;  `positivescore` bigint, &lt;br&gt;  `score` bigint, &lt;br&gt;  `grade` string&lt;/pre&gt;&lt;/pre&gt;" style="text;whiteSpace=wrap;html=1;labelBackgroundColor=none;fontColor=default;" parent="F8RsnSarVV1AUwlZgipK-23" vertex="1">
          <mxGeometry x="10" width="380" height="200" as="geometry" />
        </mxCell>
        <mxCell id="F8RsnSarVV1AUwlZgipK-25" value="&lt;pre style=&quot;font-family: var(--font-family-monospace-yt4nwf, Monaco, Menlo, Consolas, &amp;quot;Courier Prime&amp;quot;, Courier, &amp;quot;Courier New&amp;quot;, monospace); font-size: var(--font-size-body-s-533prh, 12px); padding: 0.4rem; margin-top: 0px; margin-bottom: 0px; overflow: auto; background-image: initial; background-position: initial; background-size: initial; background-repeat: initial; background-attachment: initial; background-origin: initial; background-clip: initial; text-wrap: wrap; line-height: var(--line-height-body-s-n0pazd, 16px); -webkit-font-smoothing: auto; font-weight: 400; padding-block: var(--space-scaled-xl-rljqft, 24px); padding-inline: var(--space-xl-5fdwzu, 24px); text-align: start;&quot; class=&quot;awsui_root_18wu0_1ra3n_851 awsui_box_18wu0_1ra3n_108 awsui_pre-variant_18wu0_1ra3n_108 awsui_p-xl_18wu0_1ra3n_501 awsui_color-default_18wu0_1ra3n_108 awsui_font-size-body-s_18wu0_1ra3n_259 awsui_font-weight-default_18wu0_1ra3n_164&quot; data-testid=&quot;query-results-text&quot;&gt;&lt;pre style=&quot;font-family: var(--font-family-monospace-yt4nwf, Monaco, Menlo, Consolas, &amp;quot;Courier Prime&amp;quot;, Courier, &amp;quot;Courier New&amp;quot;, monospace); font-size: var(--font-size-body-s-533prh, 12px); padding: 0.4rem; margin-top: 0px; margin-bottom: 0px; overflow: auto; background-image: initial; background-position: initial; background-size: initial; background-repeat: initial; background-attachment: initial; background-origin: initial; background-clip: initial; text-wrap: wrap; line-height: var(--line-height-body-s-n0pazd, 16px); -webkit-font-smoothing: auto; padding-block: var(--space-scaled-xl-rljqft, 24px); padding-inline: var(--space-xl-5fdwzu, 24px);&quot; class=&quot;awsui_root_18wu0_1ra3n_851 awsui_box_18wu0_1ra3n_108 awsui_pre-variant_18wu0_1ra3n_108 awsui_p-xl_18wu0_1ra3n_501 awsui_color-default_18wu0_1ra3n_108 awsui_font-size-body-s_18wu0_1ra3n_259 awsui_font-weight-default_18wu0_1ra3n_164&quot; data-testid=&quot;query-results-text&quot;&gt;static-datasets-countrycode&lt;/pre&gt;&lt;/pre&gt;" style="swimlane;whiteSpace=wrap;html=1;fontColor=default;labelBackgroundColor=none;" parent="1" vertex="1">
          <mxGeometry x="1050" y="160" width="310" height="220" as="geometry" />
        </mxCell>
        <mxCell id="F8RsnSarVV1AUwlZgipK-26" value="&lt;pre data-testid=&quot;query-results-text&quot; class=&quot;awsui_root_18wu0_1ra3n_851 awsui_box_18wu0_1ra3n_108 awsui_pre-variant_18wu0_1ra3n_108 awsui_p-xl_18wu0_1ra3n_501 awsui_color-default_18wu0_1ra3n_108 awsui_font-size-body-s_18wu0_1ra3n_259 awsui_font-weight-default_18wu0_1ra3n_164&quot; style=&quot;font-family: var(--font-family-monospace-yt4nwf, Monaco, Menlo, Consolas, &amp;quot;Courier Prime&amp;quot;, Courier, &amp;quot;Courier New&amp;quot;, monospace); font-size: var(--font-size-body-s-533prh, 12px); padding: 0.4rem; margin-top: 0px; margin-bottom: 0px; overflow: auto; background-image: initial; background-position: initial; background-size: initial; background-repeat: initial; background-attachment: initial; background-origin: initial; background-clip: initial; text-wrap: wrap; line-height: var(--line-height-body-s-n0pazd, 16px); -webkit-font-smoothing: auto; padding-block: var(--space-scaled-xl-rljqft, 24px); padding-inline: var(--space-xl-5fdwzu, 24px);&quot;&gt;&lt;pre style=&quot;font-family: var(--font-family-monospace-yt4nwf, Monaco, Menlo, Consolas, &amp;quot;Courier Prime&amp;quot;, Courier, &amp;quot;Courier New&amp;quot;, monospace); font-size: var(--font-size-body-s-533prh, 12px); padding: 0.4rem; margin-top: 0px; margin-bottom: 0px; overflow: auto; background-image: initial; background-position: initial; background-size: initial; background-repeat: initial; background-attachment: initial; background-origin: initial; background-clip: initial; text-wrap: wrap; line-height: var(--line-height-body-s-n0pazd, 16px); -webkit-font-smoothing: auto; padding-block: var(--space-scaled-xl-rljqft, 24px); padding-inline: var(--space-xl-5fdwzu, 24px);&quot; class=&quot;awsui_root_18wu0_1ra3n_851 awsui_box_18wu0_1ra3n_108 awsui_pre-variant_18wu0_1ra3n_108 awsui_p-xl_18wu0_1ra3n_501 awsui_color-default_18wu0_1ra3n_108 awsui_font-size-body-s_18wu0_1ra3n_259 awsui_font-weight-default_18wu0_1ra3n_164&quot; data-testid=&quot;query-results-text&quot;&gt;  `country` string, &lt;br&gt;  `alpha-2 code` string, &lt;br&gt;  `alpha-3 code` string, &lt;br&gt;  `numeric code` bigint, &lt;br&gt;  `latitude` double, &lt;br&gt;  `longitude` double&lt;/pre&gt;&lt;/pre&gt;" style="text;whiteSpace=wrap;html=1;fontColor=default;labelBackgroundColor=none;" parent="F8RsnSarVV1AUwlZgipK-25" vertex="1">
          <mxGeometry x="10" y="20" width="260" height="200" as="geometry" />
        </mxCell>
        <mxCell id="F8RsnSarVV1AUwlZgipK-28" value="&lt;pre style=&quot;font-family: var(--font-family-monospace-yt4nwf, Monaco, Menlo, Consolas, &amp;quot;Courier Prime&amp;quot;, Courier, &amp;quot;Courier New&amp;quot;, monospace); font-size: var(--font-size-body-s-533prh, 12px); padding: 0.4rem; margin-top: 0px; margin-bottom: 0px; overflow: auto; background-image: initial; background-position: initial; background-size: initial; background-repeat: initial; background-attachment: initial; background-origin: initial; background-clip: initial; text-wrap: wrap; line-height: var(--line-height-body-s-n0pazd, 16px); -webkit-font-smoothing: auto; font-weight: 400; padding-block: var(--space-scaled-xl-rljqft, 24px); padding-inline: var(--space-xl-5fdwzu, 24px); text-align: start;&quot; class=&quot;awsui_root_18wu0_1ra3n_851 awsui_box_18wu0_1ra3n_108 awsui_pre-variant_18wu0_1ra3n_108 awsui_p-xl_18wu0_1ra3n_501 awsui_color-default_18wu0_1ra3n_108 awsui_font-size-body-s_18wu0_1ra3n_259 awsui_font-weight-default_18wu0_1ra3n_164&quot; data-testid=&quot;query-results-text&quot;&gt;&lt;pre style=&quot;font-family: var(--font-family-monospace-yt4nwf, Monaco, Menlo, Consolas, &amp;quot;Courier Prime&amp;quot;, Courier, &amp;quot;Courier New&amp;quot;, monospace); font-size: var(--font-size-body-s-533prh, 12px); padding: 0.4rem; margin-top: 0px; margin-bottom: 0px; overflow: auto; background-image: initial; background-position: initial; background-size: initial; background-repeat: initial; background-attachment: initial; background-origin: initial; background-clip: initial; text-wrap: wrap; line-height: var(--line-height-body-s-n0pazd, 16px); -webkit-font-smoothing: auto; padding-block: var(--space-scaled-xl-rljqft, 24px); padding-inline: var(--space-xl-5fdwzu, 24px);&quot; class=&quot;awsui_root_18wu0_1ra3n_851 awsui_box_18wu0_1ra3n_108 awsui_pre-variant_18wu0_1ra3n_108 awsui_p-xl_18wu0_1ra3n_501 awsui_color-default_18wu0_1ra3n_108 awsui_font-size-body-s_18wu0_1ra3n_259 awsui_font-weight-default_18wu0_1ra3n_164&quot; data-testid=&quot;query-results-text&quot;&gt;&lt;pre style=&quot;font-family: var(--font-family-monospace-yt4nwf, Monaco, Menlo, Consolas, &amp;quot;Courier Prime&amp;quot;, Courier, &amp;quot;Courier New&amp;quot;, monospace); font-size: var(--font-size-body-s-533prh, 12px); padding: 0.4rem; margin-top: 0px; margin-bottom: 0px; overflow: auto; background-image: initial; background-position: initial; background-size: initial; background-repeat: initial; background-attachment: initial; background-origin: initial; background-clip: initial; text-wrap: wrap; line-height: var(--line-height-body-s-n0pazd, 16px); -webkit-font-smoothing: auto; padding-block: var(--space-scaled-xl-rljqft, 24px); padding-inline: var(--space-xl-5fdwzu, 24px);&quot; class=&quot;awsui_root_18wu0_1ra3n_851 awsui_box_18wu0_1ra3n_108 awsui_pre-variant_18wu0_1ra3n_108 awsui_p-xl_18wu0_1ra3n_501 awsui_color-default_18wu0_1ra3n_108 awsui_font-size-body-s_18wu0_1ra3n_259 awsui_font-weight-default_18wu0_1ra3n_164&quot; data-testid=&quot;query-results-text&quot;&gt;static-datasets-countypopulation&lt;/pre&gt;&lt;/pre&gt;&lt;/pre&gt;" style="swimlane;whiteSpace=wrap;html=1;fontColor=default;labelBackgroundColor=none;" parent="1" vertex="1">
          <mxGeometry x="1030" y="450" width="390" height="180" as="geometry" />
        </mxCell>
        <mxCell id="F8RsnSarVV1AUwlZgipK-29" value="&lt;pre data-testid=&quot;query-results-text&quot; class=&quot;awsui_root_18wu0_1ra3n_851 awsui_box_18wu0_1ra3n_108 awsui_pre-variant_18wu0_1ra3n_108 awsui_p-xl_18wu0_1ra3n_501 awsui_color-default_18wu0_1ra3n_108 awsui_font-size-body-s_18wu0_1ra3n_259 awsui_font-weight-default_18wu0_1ra3n_164&quot; style=&quot;font-family: var(--font-family-monospace-yt4nwf, Monaco, Menlo, Consolas, &amp;quot;Courier Prime&amp;quot;, Courier, &amp;quot;Courier New&amp;quot;, monospace); font-size: var(--font-size-body-s-533prh, 12px); padding: 0.4rem; margin-top: 0px; margin-bottom: 0px; overflow: auto; background-image: initial; background-position: initial; background-size: initial; background-repeat: initial; background-attachment: initial; background-origin: initial; background-clip: initial; text-wrap: wrap; line-height: var(--line-height-body-s-n0pazd, 16px); -webkit-font-smoothing: auto; padding-block: var(--space-scaled-xl-rljqft, 24px); padding-inline: var(--space-xl-5fdwzu, 24px);&quot;&gt;&lt;pre style=&quot;font-family: var(--font-family-monospace-yt4nwf, Monaco, Menlo, Consolas, &amp;quot;Courier Prime&amp;quot;, Courier, &amp;quot;Courier New&amp;quot;, monospace); font-size: var(--font-size-body-s-533prh, 12px); padding: 0.4rem; margin-top: 0px; margin-bottom: 0px; overflow: auto; background-image: initial; background-position: initial; background-size: initial; background-repeat: initial; background-attachment: initial; background-origin: initial; background-clip: initial; text-wrap: wrap; line-height: var(--line-height-body-s-n0pazd, 16px); -webkit-font-smoothing: auto; padding-block: var(--space-scaled-xl-rljqft, 24px); padding-inline: var(--space-xl-5fdwzu, 24px);&quot; class=&quot;awsui_root_18wu0_1ra3n_851 awsui_box_18wu0_1ra3n_108 awsui_pre-variant_18wu0_1ra3n_108 awsui_p-xl_18wu0_1ra3n_501 awsui_color-default_18wu0_1ra3n_108 awsui_font-size-body-s_18wu0_1ra3n_259 awsui_font-weight-default_18wu0_1ra3n_164&quot; data-testid=&quot;query-results-text&quot;&gt;&lt;pre style=&quot;font-family: var(--font-family-monospace-yt4nwf, Monaco, Menlo, Consolas, &amp;quot;Courier Prime&amp;quot;, Courier, &amp;quot;Courier New&amp;quot;, monospace); font-size: var(--font-size-body-s-533prh, 12px); padding: 0.4rem; margin-top: 0px; margin-bottom: 0px; overflow: auto; background-image: initial; background-position: initial; background-size: initial; background-repeat: initial; background-attachment: initial; background-origin: initial; background-clip: initial; text-wrap: wrap; line-height: var(--line-height-body-s-n0pazd, 16px); -webkit-font-smoothing: auto; padding-block: var(--space-scaled-xl-rljqft, 24px); padding-inline: var(--space-xl-5fdwzu, 24px);&quot; class=&quot;awsui_root_18wu0_1ra3n_851 awsui_box_18wu0_1ra3n_108 awsui_pre-variant_18wu0_1ra3n_108 awsui_p-xl_18wu0_1ra3n_501 awsui_color-default_18wu0_1ra3n_108 awsui_font-size-body-s_18wu0_1ra3n_259 awsui_font-weight-default_18wu0_1ra3n_164&quot; data-testid=&quot;query-results-text&quot;&gt;  `id` string, &lt;br&gt;  `id2` bigint, &lt;br&gt;  `county` string, &lt;br&gt;  `state` string, &lt;br&gt;  `population estimate 2018` bigint&lt;/pre&gt;&lt;/pre&gt;&lt;/pre&gt;" style="text;whiteSpace=wrap;html=1;fontColor=default;labelBackgroundColor=none;" parent="F8RsnSarVV1AUwlZgipK-28" vertex="1">
          <mxGeometry x="-25" y="-5" width="400" height="190" as="geometry" />
        </mxCell>
        <mxCell id="F8RsnSarVV1AUwlZgipK-30" value="&lt;pre style=&quot;font-family: var(--font-family-monospace-yt4nwf, Monaco, Menlo, Consolas, &amp;quot;Courier Prime&amp;quot;, Courier, &amp;quot;Courier New&amp;quot;, monospace); font-size: var(--font-size-body-s-533prh, 12px); padding: 0.4rem; margin-top: 0px; margin-bottom: 0px; overflow: auto; background-image: initial; background-position: initial; background-size: initial; background-repeat: initial; background-attachment: initial; background-origin: initial; background-clip: initial; text-wrap: wrap; line-height: var(--line-height-body-s-n0pazd, 16px); -webkit-font-smoothing: auto; font-weight: 400; padding-block: var(--space-scaled-xl-rljqft, 24px); padding-inline: var(--space-xl-5fdwzu, 24px); text-align: start;&quot; class=&quot;awsui_root_18wu0_1ra3n_851 awsui_box_18wu0_1ra3n_108 awsui_pre-variant_18wu0_1ra3n_108 awsui_p-xl_18wu0_1ra3n_501 awsui_color-default_18wu0_1ra3n_108 awsui_font-size-body-s_18wu0_1ra3n_259 awsui_font-weight-default_18wu0_1ra3n_164&quot; data-testid=&quot;query-results-text&quot;&gt;&lt;pre style=&quot;font-family: var(--font-family-monospace-yt4nwf, Monaco, Menlo, Consolas, &amp;quot;Courier Prime&amp;quot;, Courier, &amp;quot;Courier New&amp;quot;, monospace); font-size: var(--font-size-body-s-533prh, 12px); padding: 0.4rem; margin-top: 0px; margin-bottom: 0px; overflow: auto; background-image: initial; background-position: initial; background-size: initial; background-repeat: initial; background-attachment: initial; background-origin: initial; background-clip: initial; text-wrap: wrap; line-height: var(--line-height-body-s-n0pazd, 16px); -webkit-font-smoothing: auto; padding-block: var(--space-scaled-xl-rljqft, 24px); padding-inline: var(--space-xl-5fdwzu, 24px);&quot; class=&quot;awsui_root_18wu0_1ra3n_851 awsui_box_18wu0_1ra3n_108 awsui_pre-variant_18wu0_1ra3n_108 awsui_p-xl_18wu0_1ra3n_501 awsui_color-default_18wu0_1ra3n_108 awsui_font-size-body-s_18wu0_1ra3n_259 awsui_font-weight-default_18wu0_1ra3n_164&quot; data-testid=&quot;query-results-text&quot;&gt;&lt;pre style=&quot;font-family: var(--font-family-monospace-yt4nwf, Monaco, Menlo, Consolas, &amp;quot;Courier Prime&amp;quot;, Courier, &amp;quot;Courier New&amp;quot;, monospace); font-size: var(--font-size-body-s-533prh, 12px); padding: 0.4rem; margin-top: 0px; margin-bottom: 0px; overflow: auto; background-image: initial; background-position: initial; background-size: initial; background-repeat: initial; background-attachment: initial; background-origin: initial; background-clip: initial; text-wrap: wrap; line-height: var(--line-height-body-s-n0pazd, 16px); -webkit-font-smoothing: auto; padding-block: var(--space-scaled-xl-rljqft, 24px); padding-inline: var(--space-xl-5fdwzu, 24px);&quot; class=&quot;awsui_root_18wu0_1ra3n_851 awsui_box_18wu0_1ra3n_108 awsui_pre-variant_18wu0_1ra3n_108 awsui_p-xl_18wu0_1ra3n_501 awsui_color-default_18wu0_1ra3n_108 awsui_font-size-body-s_18wu0_1ra3n_259 awsui_font-weight-default_18wu0_1ra3n_164&quot; data-testid=&quot;query-results-text&quot;&gt;static-datasets-state-abv&lt;/pre&gt;&lt;/pre&gt;&lt;/pre&gt;" style="swimlane;whiteSpace=wrap;html=1;fontColor=default;labelBackgroundColor=none;" parent="1" vertex="1">
          <mxGeometry x="1030" y="690" width="370" height="140" as="geometry" />
        </mxCell>
        <mxCell id="F8RsnSarVV1AUwlZgipK-31" value="&lt;pre data-testid=&quot;query-results-text&quot; class=&quot;awsui_root_18wu0_1ra3n_851 awsui_box_18wu0_1ra3n_108 awsui_pre-variant_18wu0_1ra3n_108 awsui_p-xl_18wu0_1ra3n_501 awsui_color-default_18wu0_1ra3n_108 awsui_font-size-body-s_18wu0_1ra3n_259 awsui_font-weight-default_18wu0_1ra3n_164&quot; style=&quot;font-family: var(--font-family-monospace-yt4nwf, Monaco, Menlo, Consolas, &amp;quot;Courier Prime&amp;quot;, Courier, &amp;quot;Courier New&amp;quot;, monospace); font-size: var(--font-size-body-s-533prh, 12px); padding: 0.4rem; margin-top: 0px; margin-bottom: 0px; overflow: auto; background-image: initial; background-position: initial; background-size: initial; background-repeat: initial; background-attachment: initial; background-origin: initial; background-clip: initial; text-wrap: wrap; line-height: var(--line-height-body-s-n0pazd, 16px); -webkit-font-smoothing: auto; padding-block: var(--space-scaled-xl-rljqft, 24px); padding-inline: var(--space-xl-5fdwzu, 24px);&quot;&gt;&lt;pre style=&quot;font-family: var(--font-family-monospace-yt4nwf, Monaco, Menlo, Consolas, &amp;quot;Courier Prime&amp;quot;, Courier, &amp;quot;Courier New&amp;quot;, monospace); font-size: var(--font-size-body-s-533prh, 12px); padding: 0.4rem; margin-top: 0px; margin-bottom: 0px; overflow: auto; background-image: initial; background-position: initial; background-size: initial; background-repeat: initial; background-attachment: initial; background-origin: initial; background-clip: initial; text-wrap: wrap; line-height: var(--line-height-body-s-n0pazd, 16px); -webkit-font-smoothing: auto; padding-block: var(--space-scaled-xl-rljqft, 24px); padding-inline: var(--space-xl-5fdwzu, 24px);&quot; class=&quot;awsui_root_18wu0_1ra3n_851 awsui_box_18wu0_1ra3n_108 awsui_pre-variant_18wu0_1ra3n_108 awsui_p-xl_18wu0_1ra3n_501 awsui_color-default_18wu0_1ra3n_108 awsui_font-size-body-s_18wu0_1ra3n_259 awsui_font-weight-default_18wu0_1ra3n_164&quot; data-testid=&quot;query-results-text&quot;&gt;&lt;pre style=&quot;font-family: var(--font-family-monospace-yt4nwf, Monaco, Menlo, Consolas, &amp;quot;Courier Prime&amp;quot;, Courier, &amp;quot;Courier New&amp;quot;, monospace); font-size: var(--font-size-body-s-533prh, 12px); padding: 0.4rem; margin-top: 0px; margin-bottom: 0px; overflow: auto; background-image: initial; background-position: initial; background-size: initial; background-repeat: initial; background-attachment: initial; background-origin: initial; background-clip: initial; text-wrap: wrap; line-height: var(--line-height-body-s-n0pazd, 16px); -webkit-font-smoothing: auto; padding-block: var(--space-scaled-xl-rljqft, 24px); padding-inline: var(--space-xl-5fdwzu, 24px);&quot; class=&quot;awsui_root_18wu0_1ra3n_851 awsui_box_18wu0_1ra3n_108 awsui_pre-variant_18wu0_1ra3n_108 awsui_p-xl_18wu0_1ra3n_501 awsui_color-default_18wu0_1ra3n_108 awsui_font-size-body-s_18wu0_1ra3n_259 awsui_font-weight-default_18wu0_1ra3n_164&quot; data-testid=&quot;query-results-text&quot;&gt;  `col0` string, &lt;br&gt;  `col1` string&lt;/pre&gt;&lt;/pre&gt;&lt;/pre&gt;" style="text;whiteSpace=wrap;html=1;fontColor=default;labelBackgroundColor=none;" parent="F8RsnSarVV1AUwlZgipK-30" vertex="1">
          <mxGeometry y="-20" width="290" height="180" as="geometry" />
        </mxCell>
        <mxCell id="BDY_F9Gg0oUb3C9UldvQ-1" value="&lt;pre style=&quot;font-family: var(--font-family-monospace-yt4nwf, Monaco, Menlo, Consolas, &amp;quot;Courier Prime&amp;quot;, Courier, &amp;quot;Courier New&amp;quot;, monospace); font-size: var(--font-size-body-s-533prh, 12px); padding: 0.4rem; margin-top: 0px; margin-bottom: 0px; overflow: auto; background-image: initial; background-position: initial; background-size: initial; background-repeat: initial; background-attachment: initial; background-origin: initial; background-clip: initial; text-wrap: wrap; line-height: var(--line-height-body-s-n0pazd, 16px); -webkit-font-smoothing: auto; font-weight: 400; padding-block: var(--space-scaled-xl-rljqft, 24px); padding-inline: var(--space-xl-5fdwzu, 24px); text-align: start;&quot; class=&quot;awsui_root_18wu0_1ra3n_851 awsui_box_18wu0_1ra3n_108 awsui_pre-variant_18wu0_1ra3n_108 awsui_p-xl_18wu0_1ra3n_501 awsui_color-default_18wu0_1ra3n_108 awsui_font-size-body-s_18wu0_1ra3n_259 awsui_font-weight-default_18wu0_1ra3n_164&quot; data-testid=&quot;query-results-text&quot;&gt;&lt;pre style=&quot;font-family: var(--font-family-monospace-yt4nwf, Monaco, Menlo, Consolas, &amp;quot;Courier Prime&amp;quot;, Courier, &amp;quot;Courier New&amp;quot;, monospace); font-size: var(--font-size-body-s-533prh, 12px); padding: 0.4rem; margin-top: 0px; margin-bottom: 0px; overflow: auto; background-image: initial; background-position: initial; background-size: initial; background-repeat: initial; background-attachment: initial; background-origin: initial; background-clip: initial; text-wrap: wrap; line-height: var(--line-height-body-s-n0pazd, 16px); -webkit-font-smoothing: auto; padding-block: var(--space-scaled-xl-rljqft, 24px); padding-inline: var(--space-xl-5fdwzu, 24px);&quot; class=&quot;awsui_root_18wu0_1ra3n_851 awsui_box_18wu0_1ra3n_108 awsui_pre-variant_18wu0_1ra3n_108 awsui_p-xl_18wu0_1ra3n_501 awsui_color-default_18wu0_1ra3n_108 awsui_font-size-body-s_18wu0_1ra3n_259 awsui_font-weight-default_18wu0_1ra3n_164&quot; data-testid=&quot;query-results-text&quot;&gt;&lt;pre style=&quot;font-family: var(--font-family-monospace-yt4nwf, Monaco, Menlo, Consolas, &amp;quot;Courier Prime&amp;quot;, Courier, &amp;quot;Courier New&amp;quot;, monospace); font-size: var(--font-size-body-s-533prh, 12px); padding: 0.4rem; margin-top: 0px; margin-bottom: 0px; overflow: auto; background-image: initial; background-position: initial; background-size: initial; background-repeat: initial; background-attachment: initial; background-origin: initial; background-clip: initial; text-wrap: wrap; line-height: var(--line-height-body-s-n0pazd, 16px); -webkit-font-smoothing: auto; padding-block: var(--space-scaled-xl-rljqft, 24px); padding-inline: var(--space-xl-5fdwzu, 24px);&quot; class=&quot;awsui_root_18wu0_1ra3n_851 awsui_box_18wu0_1ra3n_108 awsui_pre-variant_18wu0_1ra3n_108 awsui_p-xl_18wu0_1ra3n_501 awsui_color-default_18wu0_1ra3n_108 awsui_font-size-body-s_18wu0_1ra3n_259 awsui_font-weight-default_18wu0_1ra3n_164&quot; data-testid=&quot;query-results-text&quot;&gt;rearc_usa_hospital_beds&lt;/pre&gt;&lt;/pre&gt;&lt;/pre&gt;" style="swimlane;whiteSpace=wrap;html=1;labelBackgroundColor=none;fontColor=default;startSize=23;" parent="1" vertex="1">
          <mxGeometry x="390" y="760" width="550" height="460" as="geometry" />
        </mxCell>
        <mxCell id="BDY_F9Gg0oUb3C9UldvQ-2" value="&lt;pre style=&quot;font-family: var(--font-family-monospace-yt4nwf, Monaco, Menlo, Consolas, &amp;quot;Courier Prime&amp;quot;, Courier, &amp;quot;Courier New&amp;quot;, monospace); font-size: var(--font-size-body-s-533prh, 12px); padding: 0.4rem; margin-top: 0px; margin-bottom: 0px; overflow: auto; background-image: initial; background-position: initial; background-size: initial; background-repeat: initial; background-attachment: initial; background-origin: initial; background-clip: initial; text-wrap: wrap; line-height: var(--line-height-body-s-n0pazd, 16px); -webkit-font-smoothing: auto; padding-block: var(--space-scaled-xl-rljqft, 24px); padding-inline: var(--space-xl-5fdwzu, 24px);&quot; class=&quot;awsui_root_18wu0_1ra3n_851 awsui_box_18wu0_1ra3n_108 awsui_pre-variant_18wu0_1ra3n_108 awsui_p-xl_18wu0_1ra3n_501 awsui_color-default_18wu0_1ra3n_108 awsui_font-size-body-s_18wu0_1ra3n_259 awsui_font-weight-default_18wu0_1ra3n_164&quot; data-testid=&quot;query-results-text&quot;&gt;&lt;pre style=&quot;font-family: var(--font-family-monospace-yt4nwf, Monaco, Menlo, Consolas, &amp;quot;Courier Prime&amp;quot;, Courier, &amp;quot;Courier New&amp;quot;, monospace); font-size: var(--font-size-body-s-533prh, 12px); padding: 0.4rem; margin-top: 0px; margin-bottom: 0px; overflow: auto; background-image: initial; background-position: initial; background-size: initial; background-repeat: initial; background-attachment: initial; background-origin: initial; background-clip: initial; text-wrap: wrap; line-height: var(--line-height-body-s-n0pazd, 16px); -webkit-font-smoothing: auto; padding-block: var(--space-scaled-xl-rljqft, 24px); padding-inline: var(--space-xl-5fdwzu, 24px);&quot; class=&quot;awsui_root_18wu0_1ra3n_851 awsui_box_18wu0_1ra3n_108 awsui_pre-variant_18wu0_1ra3n_108 awsui_p-xl_18wu0_1ra3n_501 awsui_color-default_18wu0_1ra3n_108 awsui_font-size-body-s_18wu0_1ra3n_259 awsui_font-weight-default_18wu0_1ra3n_164&quot; data-testid=&quot;query-results-text&quot;&gt;&lt;pre style=&quot;font-family: var(--font-family-monospace-yt4nwf, Monaco, Menlo, Consolas, &amp;quot;Courier Prime&amp;quot;, Courier, &amp;quot;Courier New&amp;quot;, monospace); font-size: var(--font-size-body-s-533prh, 12px); padding: 0.4rem; margin-top: 0px; margin-bottom: 0px; overflow: auto; background-image: initial; background-position: initial; background-size: initial; background-repeat: initial; background-attachment: initial; background-origin: initial; background-clip: initial; text-wrap: wrap; line-height: var(--line-height-body-s-n0pazd, 16px); -webkit-font-smoothing: auto; padding-block: var(--space-scaled-xl-rljqft, 24px); padding-inline: var(--space-xl-5fdwzu, 24px);&quot; class=&quot;awsui_root_18wu0_1ra3n_851 awsui_box_18wu0_1ra3n_108 awsui_pre-variant_18wu0_1ra3n_108 awsui_p-xl_18wu0_1ra3n_501 awsui_color-default_18wu0_1ra3n_108 awsui_font-size-body-s_18wu0_1ra3n_259 awsui_font-weight-default_18wu0_1ra3n_164&quot; data-testid=&quot;query-results-text&quot;&gt;  `objectid` int COMMENT &#39;from deserializer&#39;, &lt;br&gt;  `hospital_name` string COMMENT &#39;from deserializer&#39;, &lt;br&gt;  `hospital_type` string COMMENT &#39;from deserializer&#39;, &lt;br&gt;  `hq_address` string COMMENT &#39;from deserializer&#39;, &lt;br&gt;  `hq_address1` string COMMENT &#39;from deserializer&#39;, &lt;br&gt;  `hq_city` string COMMENT &#39;from deserializer&#39;, &lt;br&gt;  `hq_state` string COMMENT &#39;from deserializer&#39;, &lt;br&gt;  `hq_zip_code` string COMMENT &#39;from deserializer&#39;, &lt;br&gt;  `county_name` string COMMENT &#39;from deserializer&#39;, &lt;br&gt;  `state_name` string COMMENT &#39;from deserializer&#39;, &lt;br&gt;  `state_fips` string COMMENT &#39;from deserializer&#39;, &lt;br&gt;  `cnty_fips` string COMMENT &#39;from deserializer&#39;, &lt;br&gt;  `fips` string COMMENT &#39;from deserializer&#39;, &lt;br&gt;  `num_licensed_beds` int COMMENT &#39;from deserializer&#39;, &lt;br&gt;  `num_staffed_beds` int COMMENT &#39;from deserializer&#39;, &lt;br&gt;  `num_icu_beds` int COMMENT &#39;from deserializer&#39;, &lt;br&gt;  `adult_icu_beds` int COMMENT &#39;from deserializer&#39;, &lt;br&gt;  `pedi_icu_beds` double COMMENT &#39;from deserializer&#39;, &lt;br&gt;  `bed_utilization` double COMMENT &#39;from deserializer&#39;, &lt;br&gt;  `avg_ventilator_usage` double COMMENT &#39;from deserializer&#39;, &lt;br&gt;  `potential_increase_in_bed_capac` int COMMENT &#39;from deserializer&#39;, &lt;br&gt;  `latitude` double COMMENT &#39;from deserializer&#39;, &lt;br&gt;  `longtitude` double COMMENT &#39;from deserializer&lt;/pre&gt;&lt;/pre&gt;&lt;/pre&gt;" style="text;whiteSpace=wrap;html=1;labelBackgroundColor=none;fontColor=default;" parent="BDY_F9Gg0oUb3C9UldvQ-1" vertex="1">
          <mxGeometry x="-15" y="-40" width="610" height="200" as="geometry" />
        </mxCell>
        <mxCell id="BDY_F9Gg0oUb3C9UldvQ-3" style="edgeStyle=orthogonalEdgeStyle;rounded=0;orthogonalLoop=1;jettySize=auto;html=1;exitX=1;exitY=0.5;exitDx=0;exitDy=0;entryX=0;entryY=0.75;entryDx=0;entryDy=0;" parent="1" source="F8RsnSarVV1AUwlZgipK-8" target="F8RsnSarVV1AUwlZgipK-5" edge="1">
          <mxGeometry relative="1" as="geometry" />
        </mxCell>
        <mxCell id="BDY_F9Gg0oUb3C9UldvQ-13" style="edgeStyle=orthogonalEdgeStyle;rounded=0;orthogonalLoop=1;jettySize=auto;html=1;exitX=1;exitY=0.5;exitDx=0;exitDy=0;entryX=0.025;entryY=1.4;entryDx=0;entryDy=0;entryPerimeter=0;" parent="1" source="F8RsnSarVV1AUwlZgipK-23" target="BDY_F9Gg0oUb3C9UldvQ-2" edge="1">
          <mxGeometry relative="1" as="geometry" />
        </mxCell>
        <mxCell id="BDY_F9Gg0oUb3C9UldvQ-14" style="edgeStyle=orthogonalEdgeStyle;rounded=0;orthogonalLoop=1;jettySize=auto;html=1;exitX=1;exitY=0.5;exitDx=0;exitDy=0;entryX=0.807;entryY=0;entryDx=0;entryDy=0;entryPerimeter=0;" parent="1" source="F8RsnSarVV1AUwlZgipK-5" target="F8RsnSarVV1AUwlZgipK-25" edge="1">
          <mxGeometry relative="1" as="geometry" />
        </mxCell>
        <mxCell id="BDY_F9Gg0oUb3C9UldvQ-18" style="edgeStyle=orthogonalEdgeStyle;rounded=0;orthogonalLoop=1;jettySize=auto;html=1;exitX=1;exitY=0.5;exitDx=0;exitDy=0;entryX=0.063;entryY=0.474;entryDx=0;entryDy=0;entryPerimeter=0;" parent="1" source="F8RsnSarVV1AUwlZgipK-21" target="F8RsnSarVV1AUwlZgipK-29" edge="1">
          <mxGeometry relative="1" as="geometry" />
        </mxCell>
        <mxCell id="sI4wjIYhiqcEyJsqSjtV-1" style="edgeStyle=orthogonalEdgeStyle;rounded=0;orthogonalLoop=1;jettySize=auto;html=1;exitX=0.5;exitY=1;exitDx=0;exitDy=0;entryX=1;entryY=0.25;entryDx=0;entryDy=0;" edge="1" parent="1" source="F8RsnSarVV1AUwlZgipK-26" target="F8RsnSarVV1AUwlZgipK-28">
          <mxGeometry relative="1" as="geometry">
            <mxPoint x="1460" y="460" as="targetPoint" />
          </mxGeometry>
        </mxCell>
        <mxCell id="sI4wjIYhiqcEyJsqSjtV-2" style="edgeStyle=orthogonalEdgeStyle;rounded=0;orthogonalLoop=1;jettySize=auto;html=1;" edge="1" parent="1" source="F8RsnSarVV1AUwlZgipK-29" target="F8RsnSarVV1AUwlZgipK-30">
          <mxGeometry relative="1" as="geometry" />
        </mxCell>
        <mxCell id="sI4wjIYhiqcEyJsqSjtV-3" style="edgeStyle=orthogonalEdgeStyle;rounded=0;orthogonalLoop=1;jettySize=auto;html=1;entryX=0.409;entryY=-0.002;entryDx=0;entryDy=0;entryPerimeter=0;" edge="1" parent="1" source="F8RsnSarVV1AUwlZgipK-23" target="F8RsnSarVV1AUwlZgipK-17">
          <mxGeometry relative="1" as="geometry" />
        </mxCell>
      </root>
    </mxGraphModel>
  </diagram>
</mxfile>
